<svg enable-background="new 0 0 738 638" viewBox="0 0 738 638" xmlns="http://www.w3.org/2000/svg" xmlns:xlink="http://www.w3.org/1999/xlink"><linearGradient id="a"><stop offset="0" stop-color="#fbb03b"/><stop offset="1" stop-color="#e29a3b"/></linearGradient><linearGradient id="b" gradientUnits="userSpaceOnUse" x1="-188.8191" x2="2107.0244" xlink:href="#a" y1="99.1173" y2="115.8753"/><linearGradient id="c" gradientUnits="userSpaceOnUse" x1="-56.1208" x2="1771.6061" xlink:href="#a" y1="200.3401" y2="213.6811"/><linearGradient id="d"><stop offset="0" stop-color="#fbb03b"/><stop offset="1" stop-color="#c8812a"/></linearGradient><linearGradient id="e" gradientUnits="userSpaceOnUse" x1="306.2109" x2="589.4879" xlink:href="#d" y1="89.2474" y2="135.8626"/><linearGradient id="f" gradientUnits="userSpaceOnUse" x1="291.884" x2="575.161" xlink:href="#d" y1="176.3109" y2="222.9261"/><linearGradient id="g"><stop offset="0" stop-color="#333"/><stop offset="1"/></linearGradient><linearGradient id="h" gradientUnits="userSpaceOnUse" x1="76.4308" x2="739.801" xlink:href="#g" y1="81.9706" y2="551.7084"/><linearGradient id="i" gradientUnits="userSpaceOnUse" x1="36.1622" x2="699.5324" xlink:href="#g" y1="138.8385" y2="608.5763"/><g fill="#fff"><path d="m336.68 307.68c3.59 0 7.34-.57 11.14-1.71 24.61-7.34 24.61-32.82 24.61-49.67 0-10.14-4.35-15.69-8-18.56-4.2-3.3-9.9-5.04-16.5-5.04-3.89 0-7.96.6-11.79 1.74-10.15 3.03-29.36 15.04-29.36 38.82 0 20.59 12.02 34.42 29.9 34.42z"/><path d="m726.87 477.87c-2.75-11.73-10.29-22.06-22.39-30.7-.76-.54-1.51-1.05-2.29-1.53 11.62-41.01 15.17-67.64 17.54-85.43.57-4.27 1.06-7.96 1.58-11.23 2.07-12.98 6.35-78.54 6.35-92.95 0-4.8-2.35-11.22-13.54-14.51-4.66-1.37-9.87-1.95-14.37-2.29 5.35-4.85 10.95-10.59 10.95-16.74 0-5.06-4.46-9.05-13.27-11.86-7.02-2.24-16.09-3.48-25.54-3.48-10.29 0-20.68 1.48-30.05 4.27-12.68 3.78-29.03 21.65-43.73 47.8-14.8 26.32-23.63 53.77-23.63 73.44 0 3.85.25 7.65.77 11.58-5.93 13.25-12.54 21.39-15.87 22.38-1 .3-1.56.36-1.82.37-.45-.7-1.58-3.46-1.58-13.56 0-11.23 3.1-25.05 5.84-37.24 2.41-10.72 4.68-20.85 4.68-28.31 0-8.01-3.04-15.51-8.56-21.11-4.46-4.53-12.76-9.93-26.9-9.93-6.62 0-13.97 1.19-21.86 3.55-13.59 4.05-25.44 13.67-35.22 28.57-3.94 6.01-7.21 12.31-9.96 18.33.03-.83.04-1.67.04-2.55 0-3.51-1.57-9.98-12.07-13.83-7.16-2.63-15.35-3.02-19.59-3.02-5.23 0-10.01.56-13.44 1.59-12.9 3.85-17.48 11.11-17.48 16.16 0 2.34.93 4.07 1.67 5.46.84 1.57 1.72 3.19 1.72 6.88 0 4.34-1.14 16.83-2.45 31.29-.45 4.95-.92 10.15-1.39 15.4-.33 1.12-.67 2.28-1.05 3.56-1.81 5.99-7.24 20.78-14.04 34.8-11.01 22.7-16.83 25.42-17.88 25.74-.52.15-.84.22-1.03.24-.56-.7-2.72-4.37-2.72-19.83 0-13.68 1.42-28.65 2.8-43.13 1.18-12.42 2.29-24.15 2.29-33.43 0-6.16-2.71-20.5-27.78-20.5-6.65 0-14.4 1.13-20.72 3.01-5.89 1.76-15.78 6.37-15.78 17.45 0 1.29.18 2.28.35 3.24.27 1.51.67 3.79.67 9.8 0 3.12-.63 7.82-1.42 13.76-1.55 11.61-3.89 29.09-4 53.19-3.73 9.35-10.59 26.46-19.54 29.13-.59.18-1.16.27-1.69.27-5.99 0-11.72-12.14-16.78-22.85-3.59-7.59-7.29-15.44-11.83-21.06-9.96-12.33-20.07-16.36-31.64-17.31 15.25-12.47 26.32-25.65 33.68-40.02 8.15-15.94 10.85-31.27 13.46-46.11.99-5.61 1.92-10.91 3.13-16.27 4.33-19.3 13.09-36.78 19.48-49.55 5.06-10.11 8.12-16.21 8.12-20.73 0-5.37-4.2-9.27-10-9.27-1.29 0-2.6.2-3.89.58-1.48.44-4.17 1.34-7.58 2.49-5.51 1.85-13.06 4.39-19.57 6.33-14.37 4.29-25.55 13.24-34.17 27.37-7.82 12.81-13.7 29.94-18.49 53.9-7.07 35.44-13.65 55.65-18.47 67-1.06-42.91-6.04-77.11-14.85-101.83-5.44-15.27-12.45-27.09-20.83-35.11-9.11-8.73-19.93-13.15-32.15-13.16-5.51 0-11.38.92-17.43 2.72-14.07 4.2-37.4 20.18-57.82 46.43-16.31 20.96-35.74 55.01-35.74 98.18 0 23.39 6.36 47.81 17.46 67 11.47 19.83 26.29 31.21 40.67 31.21 2.62 0 5.23-.38 7.75-1.13 24.73-7.38 44.96-42.86 44.96-52.42 0-8.41-6.45-12.95-12.52-12.95-1.08 0-2.11.14-3.07.43-2.79.83-4.74 3.61-9 9.71-3.83 5.47-10.95 15.64-15.09 16.88-.14.04-.21.04-.22.04-.05-.01-4.66-2.02-7.66-24.73-2.16-16.42-2.4-35.36-2.4-42.73 0-22.37 5.02-47.33 13.78-68.49 8.52-20.57 17.91-31.44 23.44-33.09h.01c.38.22 2.9 1.99 5.68 12.06 2.24 8.09 4.12 19.59 5.61 34.18 2.61 25.64 3.99 61.38 3.99 103.35 0 32.44-3.14 65.65-8.62 91.12-8.26 38.36-18.2 44.12-21.06 44.97-2.89.86-4.95.97-6.42.97-.84 0-1.64-.04-2.49-.08s-1.73-.09-2.65-.09c-2.21 0-4.14.27-6.08.85-6.59 1.97-12.05 13.71-12.05 18.87 0 8.21 11.75 13.73 29.25 13.73 8.98 0 18.8-1.51 28.41-4.38 26.1-7.79 44.57-26.65 54.9-56.05 7.81-22.26 9.84-47.32 10.3-67.05 4.09 4.4 9.15 11.15 13.25 20.75 10.6 25.02 24.44 48.19 53.6 48.19 6.46 0 13.32-1.11 20.97-3.39 18.84-5.62 33.1-27.14 41.57-43.71 6.98 9.16 16.81 13.95 28.85 13.95 5.02 0 10.44-.86 16.12-2.55 25.1-7.49 38.61-23.02 46.75-36.77 5.67 8.44 14.97 13.38 26.02 13.38 3.74 0 7.56-.58 11.37-1.71 6.17-1.84 13.92-6.41 20.73-12.22 5.48-4.68 12.02-11.57 12.02-17.87 0-7.57 0-20.25 3.69-49.55 3.25-25.94 13.96-47.98 19.71-56.93-.53 2.9-1.42 6.4-2.45 10.42-3.19 12.51-7.55 29.65-7.55 52.63 0 43.41 22.06 49.89 35.21 49.89 4.98 0 10.48-.89 16.35-2.64 25.23-7.53 42.17-27.93 50.65-40.68 7.85 7.82 18.32 12.05 30.14 12.05 5.26 0 10.73-.84 16.25-2.48 9.49-2.83 17.84-11.95 24.64-21.9-1.51 15.65-3.54 35.05-4.52 40.27-.17.9-2.09 11.1-3.34 17.55-.35 1.29-.59 2.41-.78 3.43-17.42-6.18-34.26-10.17-56.46-10.17-10.3 0-21.22.85-33.41 2.6-30.07 4.32-92.91 31.9-153.69 58.57-46.95 20.61-91.28 40.07-119.01 48.44-60.28 18.2-116.26 19.19-116.82 19.19-3.58.05-6.89 2.02-8.62 5.15-1.73 3.12-1.66 6.96.18 10.03 9.7 16.06 42.92 32.6 87.66 33.17h.01.04.72c39.24 0 108.6-38.71 175.67-76.15l.06-.03c7.48-4.17 14.21-7.93 20.87-11.63 51.58-28.61 100.77-45.85 146.2-51.24 5.29-.63 11.81-.96 18.85-.96 10.47 0 21.44.72 30.43 1.96-.71 2.93-1.28 5.35-1.66 7.63-3.57 21.37.84 41.93 11.82 54.99 7.49 8.92 17.46 13.67 28.83 13.76h.43c19.7 0 33.88-9.97 41.02-28.83 1.68-4.48 4.11-13.57 1.52-24.6zm-33.46-6.09c2.33 2.26 4.1 5 4.15 8.13.05 2.69-1.14 4.84-2.07 6.02-.42-.34-.91-.86-1.35-1.65-.97-1.7-2.1-5.38-.73-12.5zm-23.43-205.17c-2.02 9.48-5.4 22.75-10.22 33.24-14 29.96-22.08 39.6-24.4 40.5-.25.08-.45.11-.59.13-.16-.37-.41-1.22-.41-2.86 0-7.68 7.07-26.03 16.81-43.64 7.02-12.69 13.57-21.77 18.81-27.37z"/><path d="m438.96 591.88h-5.23-15.22-4.8l-.19 4.8c-.23 5.77-1.32 7.44-1.54 7.72-.36.46-1.71 1-4.34 1-3.28 0-4.02-1.24-4.33-1.76-.54-.9-1.8-3.96-1.8-12.86v-14.2c.12-7.33 1.3-10.38 1.99-11.54.35-.59 1.08-1.83 4.35-1.83 2.58 0 3.9.54 4.24 1.01.22.3 1.32 2.07 1.47 8.15l.13 4.87h4.87 15.27 5.35l-.37-5.34c-.67-9.73-3.56-17.41-8.6-22.84-5.23-5.63-12.76-8.48-22.38-8.48-9.86 0-17.74 3.43-23.41 10.21-5.45 6.51-8.21 15.64-8.21 27.15v12.69c0 11.51 2.66 20.65 7.92 27.14 5.51 6.81 13.41 10.27 23.48 10.27 9.44 0 16.96-2.72 22.37-8.08 5.35-5.31 8.29-13 8.72-22.85z"/><path d="m480.44 545.1-1.1-3.5h-3.67-13.93-3.68l-1.1 3.51-23.56 75.38-2.03 6.49h6.8 16.1 3.86l.98-3.73 3.06-11.69h13.04l3.06 11.69.98 3.73h3.86 16.26 6.81l-2.04-6.5zm-11.19 43.77h-1.12l.56-2.15z"/><path d="m544.72 544.09c-4.34-2.34-9.3-3.52-14.74-3.52-8.13 0-15 2.35-20.41 6.97-5.65 4.82-8.51 11.25-8.51 19.1 0 6.45 2.08 12.14 6.18 16.91 3.19 3.71 7.78 6.89 13.95 9.68h-1.72-15.27-5v5c0 5.98 1.38 11.29 4.12 15.8 2.75 4.53 6.59 8.05 11.44 10.47 4.69 2.34 9.92 3.53 15.54 3.53 8.4 0 15.25-2.29 20.35-6.8 5.28-4.66 7.95-11.1 7.95-19.12 0-7.18-2.09-13.24-6.21-18.02-3.51-4.07-8.59-7.43-15.49-10.22h1.58 15.17 5v-5c0-5.35-1.19-10.23-3.54-14.52-2.42-4.4-5.91-7.85-10.39-10.26zm-11.45 58.12c0 1.64-.32 2.57-.63 2.89-.32.34-1.2.54-2.35.54-2.23 0-3.82-.43-4.49-1.21-.4-.47-1.33-2-1.33-6.22v-3.62c.34.13.69.27 1.04.4 4.55 1.86 6.25 3.17 6.87 3.78.73.75.89 2.28.89 3.44zm.2-29.71c-3.93-1.77-5.53-3.03-6.15-3.66-.92-.93-1.04-1.61-1.04-2.1 0-2 .65-2.68.86-2.91.2-.21.75-.79 2.58-.79 1.87 0 2.38.63 2.62.93.73.9 1.13 2.63 1.13 4.89z"/><path d="m564.36 541.6h-5v5 75.39 5h5 15.22 5v-5-75.39-5h-5z"/><path d="m629.91 541.6h-5v5 26.25l-12.76-28.3-1.33-2.95h-3.23-15.22-5v5 75.39 5h5 15.22 5v-5-26.17l12.71 28.22 1.32 2.95h3.24 15.22 5v-5-75.39-5h-5z"/><path d="m683.19 540.57c-10.05 0-18.07 3.55-23.84 10.54-5.53 6.71-8.34 15.94-8.34 27.44v12.89c.08 11.2 2.96 20.12 8.58 26.56 5.8 6.65 13.77 10.02 23.7 10.02 9.98 0 17.96-3.41 23.71-10.14 5.55-6.5 8.37-15.52 8.37-26.81v-12.89c-.08-11.51-2.95-20.67-8.53-27.28-5.81-6.85-13.77-10.33-23.65-10.33zm6.9 37.87v13.1c-.04 6.74-1.2 10-2.18 11.54-.7 1.11-1.81 2.25-4.63 2.25-3 0-4.15-1.19-4.88-2.35-.99-1.58-2.18-4.93-2.18-11.91v-13.37c.08-6.94 1.28-10.36 2.28-12.01.75-1.24 1.83-2.38 4.68-2.38 2.3 0 3.66.72 4.69 2.49 1.02 1.73 2.22 5.33 2.22 12.64z"/></g><path d="m321.82 192.29c-1.62 0-3.04-1.08-3.47-2.65l-36.68-134.5c-.5-1.84.52-3.75 2.33-4.35.38-.13.76-.19 1.14-.19 1.43 0 2.78.86 3.34 2.26 8.88 22.21 42.84 37.87 61.5 43.63 1.03.32 1.86 1.08 2.27 2.07s.35 2.12-.16 3.07c-2.72 5.06-4.15 10.79-4.15 16.57 0 19.35 15.74 35.09 35.09 35.09s35.09-15.74 35.09-35.09c0-13.68-8.05-26.2-20.5-31.91-1.36-.62-2.19-2.03-2.09-3.52s1.12-2.77 2.56-3.19c7.13-2.13 25.12-8.49 38.2-21.57 16.26-16.26 22.24-40.57 22.3-40.82.39-1.62 1.84-2.76 3.49-2.76h.17c1.72.08 3.15 1.37 3.39 3.07.03.21 3.4 21.65 22.24 40.49 15.78 15.78 33.38 20.35 40.21 21.59 1.52.27 2.69 1.49 2.92 3.01s-.55 3.03-1.93 3.73c-11.74 5.97-19.33 18.48-19.33 31.87 0 19.35 15.74 35.09 35.09 35.09s35.09-15.74 35.09-35.09c0-5.74-1.42-11.43-4.1-16.47-.59-1.11-.56-2.44.08-3.52s1.8-1.75 3.05-1.76c30.89-.32 54.33-43.5 54.56-43.94.64-1.2 1.88-1.9 3.17-1.9.44 0 .89.08 1.33.26 1.7.68 2.62 2.52 2.14 4.28l-36.68 134.5c-.43 1.56-1.85 2.65-3.47 2.65z" fill="url(#b)"/><path d="m462.08 18.02s3.26 22.52 23.26 42.52c18.2 18.2 38.61 21.95 42.11 22.58-12.56 6.39-21.3 20.01-21.3 35.07 0 21.36 17.32 38.68 38.68 38.68s38.68-17.32 38.68-38.68c0-6.56-1.64-12.74-4.53-18.16 33.43-.35 57.7-45.84 57.7-45.84l-36.68 134.51h-278.18l-36.68-134.5c11.59 28.98 58.9 44.22 63.78 45.73-2.92 5.44-4.58 11.66-4.58 18.27 0 21.36 17.32 38.68 38.68 38.68s38.68-17.32 38.68-38.68c0-15.62-9.26-29.07-22.59-35.18 7.04-2.1 25.96-8.72 39.71-22.48 17.21-17.21 23.26-42.52 23.26-42.52m-.01-7.19c-3.31 0-6.21 2.27-6.99 5.51-.06.23-5.85 23.62-21.35 39.12-12.5 12.5-29.82 18.62-36.69 20.67-2.87.86-4.91 3.4-5.11 6.39-.21 2.99 1.46 5.79 4.18 7.04 11.18 5.12 18.4 16.36 18.4 28.64 0 17.37-14.13 31.49-31.49 31.49-17.37 0-31.49-14.13-31.49-31.49 0-5.19 1.29-10.33 3.73-14.87 1.02-1.89 1.13-4.14.32-6.13-.82-1.99-2.48-3.51-4.53-4.14-1.98-.61-48.73-15.28-59.22-41.53-1.13-2.8-3.83-4.53-6.69-4.53-.76 0-1.53.12-2.28.37-3.61 1.21-5.65 5.03-4.65 8.71l36.68 134.5c.85 3.13 3.69 5.3 6.94 5.3h278.17c3.24 0 6.08-2.17 6.94-5.3l36.61-134.22c.22-.68.33-1.41.33-2.17 0-3.76-2.88-6.84-6.55-7.16-.22-.02-.43-.03-.64-.03-.29 0-.58.02-.87.05-1.14.14-2.19.54-3.1 1.14-.73.48-1.37 1.1-1.89 1.83-.19.27-.37.56-.52.86-1.16 2.11-23.28 41.66-51.38 41.95-2.51.03-4.83 1.36-6.11 3.52s-1.34 4.83-.16 7.05c2.44 4.59 3.68 9.56 3.68 14.78 0 17.37-14.13 31.49-31.49 31.49-17.37 0-31.49-14.13-31.49-31.49 0-12.04 6.82-23.3 17.37-28.66 2.75-1.4 4.3-4.4 3.85-7.45s-2.8-5.48-5.84-6.03c-6.5-1.17-23.24-5.53-38.3-20.59-18.1-18.1-21.19-38.26-21.22-38.47-.49-3.41-3.34-6-6.79-6.15-.14 0-.25 0-.36 0z"/><path d="m321.73 219.52c-1.98 0-3.59-1.61-3.59-3.59v-23.63c0-1.98 1.61-3.59 3.59-3.59h278.23c1.98 0 3.59 1.61 3.59 3.59v23.62c0 1.98-1.61 3.59-3.59 3.59h-278.23z" fill="url(#c)"/><path d="m599.95 192.3v23.62h-278.22v-23.62zm0-7.19h-278.22c-3.97 0-7.19 3.22-7.19 7.19v23.62c0 3.97 3.22 7.19 7.19 7.19h278.22c3.97 0 7.19-3.22 7.19-7.19v-23.62c0-3.97-3.22-7.19-7.19-7.19z"/><path d="m578.98 100.03c2.89 5.42 4.53 11.6 4.53 18.16 0 21.36-17.32 38.68-38.68 38.68s-38.68-17.32-38.68-38.68c0-15.06 8.74-28.68 21.3-35.07-3.5-.63-23.91-4.38-42.11-22.58-20-20-23.26-42.52-23.26-42.52s-6.05 25.31-23.26 42.52c-13.76 13.76-32.67 20.37-39.71 22.48 13.33 6.11 22.59 19.56 22.59 35.18 0 21.36-17.32 38.68-38.68 38.68s-38.68-17.32-38.68-38.68c0-6.61 1.66-12.83 4.58-18.27-4.88-1.5-52.19-16.74-63.78-45.73l36.68 134.5h278.18l36.68-134.5c0-.01-24.27 45.48-57.7 45.83z" fill="url(#e)"/><path d="m321.73 192.3h278.22v23.62h-278.22z" fill="url(#f)"/><path d="m350.61 192.3h22.16v23.62h-22.16z" fill="#fff" transform="matrix(-1 0 0 -1 723.3849 408.2278)"/><path d="m337.54 192.3h7.24v23.62h-7.24z" fill="#fff" transform="matrix(-1 0 0 -1 682.3183 408.2278)"/><path d="m575.37 191.72h24.68v24.5h-24.68z" transform="matrix(-1 0 0 -1 1175.4161 407.9361)"/><path d="m562.18 191.72h7.24v24.5h-7.24z" transform="matrix(-1 0 0 -1 1131.6016 407.9361)"/><path d="m637.53 53.63-36.17 135.9h-19.53l26.85-100.89 26.71-35.01z"/><path d="m594.13 93.14h7.24l-25.37 96.39h-7.24z"/><path d="m346.39 301.18c20.02-5.97 21.03-25.76 21.03-44.88 0-19.48-18.32-20.51-29.86-17.06-6.79 2.03-25.79 11.66-25.79 34.03.01 22 14.94 33.78 34.62 27.91z" fill="url(#h)"/><path d="m701.58 451.24c-1.88-1.34-3.62-2.32-5.29-3.14 15.31-52.88 17.3-82.37 20.09-99.9 1.96-12.33 6.28-77.37 6.28-92.16 0-14.43-33.59-10.91-33.59-13.07 0-2.53 16.63-12.9 16.63-20.48 0-7.57-32.23-15.28-62.43-6.27-23.75 7.08-63.78 75.31-63.78 116.44 0 4.4.35 8.46.91 12.3-4.81 11.08-12.67 24.4-19.59 26.46-6.78 2.03-9.83-.67-9.83-17.99 0-21.65 10.51-50.4 10.51-65.55 0-15.52-14.25-33.63-50.89-22.7s-47.5 62.15-54.28 73.19c0-14.43 2.71-21.73 2.71-33.63 0-11.91-28.15-13.61-38.67-10.47s-13.91 8.48-13.91 11.37c0 2.88 3.39 4.4 3.39 12.33 0 6.15-2.05 26.59-3.9 47.63-.37 1.26-.76 2.57-1.19 4.03-4.08 13.48-22.39 60.07-35.29 63.92-4.41 1.32-10.18 1.6-10.18-24.38s5.09-57.08 5.09-76.56c0-19.12-28.5-16.75-42.07-12.7-7.12 2.13-12.21 6.17-12.21 12.66 0 2.52 1.02 3.3 1.02 13.04 0 10.03-5.34 30.91-5.42 67.91-.01.03-.02.07-.04.1-4.41 11.06-11.54 29.42-23.07 32.86-16.63 4.96-23.41-30.18-35.62-45.29s-24.43-16.52-42.74-15.39c55.64-38.97 52.58-74.13 60.39-108.57 7.47-33.26 27.48-60.88 27.48-69.18 0-3.61-3.73-5.02-7.46-3.9-3.73 1.11-16.62 5.68-27.15 8.82-26.8 7.99-40.37 33.33-49.19 77.45-14.93 74.8-28.16 83.81-28.16 83.81 0-108.24-22.73-177.17-79.04-160.37-27.48 8.2-89.99 64.42-89.99 139.82 0 51.59 31.63 100.59 59.45 92.29 23.07-6.88 41.39-40.77 41.39-47.62s-6.11-8.64-9.16-7.73-14.93 23.85-24.09 26.59c-14.59 4.35-16.7-48.76-16.7-72.21 0-50.87 24.17-101.42 40.79-106.38s21.71 73.21 21.71 154.38c0 64.22-12.21 134.61-33.25 140.88-8.48 2.53-11.87-.07-17.64 1.65-3.73 1.11-8.48 10.11-8.48 14.08 0 6.85 22.38 13.16 51.23 4.56 55.3-16.5 61.74-81.55 61.74-129.17 0 0 13.57 8.22 22.73 29.66 14.25 33.63 30.87 53.2 68.53 41.97 18.48-5.51 33.27-28.89 42.5-49.42 7.64 16.25 22.35 23.58 44.04 17.11 27.35-8.16 40.53-26.68 48.51-43.24 4.45 16.2 19.66 22.91 35.64 18.14 11.54-3.44 29.18-18.08 29.18-25.3 0-7.57 0-20.56 3.73-50.18 4.41-35.23 22.05-63.58 25.11-64.49 3.39-1.01 5.09.29 5.09 3.53 0 11.19-10.52 32.72-10.52 67.72s14.93 51.47 45.13 42.46c24.12-7.2 41.61-27.44 51.46-44.33 10.15 14.2 27.14 18.72 45.59 13.21 17.3-5.16 32.23-38.12 32.91-38.32.31-.09-4.61 52.66-6.44 62.4-.18.98-2.14 11.33-3.38 17.77-.99 3.52-.95 5.58-1.86 8.99-25.5-9.59-49.63-15.55-92.94-9.33-29.4 4.22-91.93 31.67-152.41 58.21-47.08 20.67-91.56 40.19-119.56 48.64-61.17 18.47-117.63 19.4-118.2 19.41-1.8.02-3.44 1.01-4.32 2.58-.87 1.57-.84 3.49.09 5.03 8.76 14.5 40.97 30.2 83.44 30.74h.7c37.95 0 106.75-38.4 173.29-75.55 7-3.91 13.98-7.8 20.88-11.63 52.15-28.92 101.95-46.36 148.04-51.84 16.25-1.93 40.46-.92 56 1.87-1.32 5.55-2.32 9.26-2.86 12.55-5.39 32.25 8.69 62.73 35.76 62.93 23.96.18 33-15.71 36.74-25.6s6.16-31.4-19.11-49.45zm-37.27-149.3c-8.82 18.87-20.7 41.17-27.48 43.19-4.75 1.42-7.47-1.38-7.47-7.52 0-18.04 30.54-77.3 47.84-82.46 0 .01-4.07 27.56-12.89 46.79zm31.79 189.56c-2.48-.09-13.26-4.68-5.64-28.14 21.27 12.73 8.66 28.25 5.64 28.14z" fill="url(#i)"/><path d="m433.74 596.88c-.38 8.59-2.8 15.1-7.25 19.52s-10.74 6.63-18.85 6.63c-8.53 0-15.06-2.8-19.6-8.41s-6.81-13.61-6.81-24v-12.69c0-10.35 2.35-18.33 7.04-23.94s11.22-8.41 19.57-8.41c8.21 0 14.45 2.3 18.72 6.89 4.26 4.59 6.69 11.18 7.27 19.78h-15.27c-.14-5.31-.96-8.98-2.46-11s-4.25-3.03-8.26-3.03c-4.07 0-6.96 1.42-8.65 4.27s-2.59 7.53-2.69 14.06v14.24c0 7.49.84 12.63 2.51 15.43s4.55 4.19 8.62 4.19c4 0 6.76-.98 8.28-2.93s2.38-5.48 2.59-10.59h15.24z" fill="#c1272d"/><path d="m479.09 606.56h-20.76l-4.04 15.43h-16.1l23.56-75.38h13.93l23.71 75.38h-16.26zm-17.45-12.69h14.08l-7.04-26.87z" fill="#c1272d"/><path d="m538.27 602.21c0-3.07-.79-5.39-2.36-6.96s-4.43-3.2-8.57-4.89c-7.56-2.86-13-6.22-16.31-10.07s-4.97-8.4-4.97-13.64c0-6.35 2.25-11.45 6.76-15.3 4.5-3.85 10.22-5.77 17.16-5.77 4.62 0 8.75.98 12.37 2.93 3.63 1.95 6.41 4.7 8.36 8.26s2.93 7.59 2.93 12.12h-15.17c0-3.52-.75-6.2-2.25-8.05s-3.67-2.77-6.5-2.77c-2.66 0-4.73.79-6.21 2.36s-2.23 3.68-2.23 6.34c0 2.07.83 3.94 2.49 5.62 1.66 1.67 4.59 3.41 8.8 5.2 7.35 2.66 12.69 5.92 16.02 9.78 3.33 3.87 5 8.79 5 14.76 0 6.56-2.09 11.68-6.27 15.38-4.18 3.69-9.85 5.54-17.03 5.54-4.87 0-9.3-1-13.3-3-4.01-2-7.14-4.87-9.4-8.59s-3.39-8.13-3.39-13.2h15.27c0 4.35.84 7.51 2.54 9.48 1.69 1.97 4.45 2.95 8.28 2.95 5.32-.04 7.98-2.85 7.98-8.48z" fill="#c1272d"/><path d="m579.58 621.99h-15.22v-75.39h15.22z" fill="#c1272d"/><path d="m645.08 621.99h-15.22l-22.26-49.44v49.44h-15.22v-75.39h15.22l22.32 49.5v-49.5h15.17v75.39z" fill="#c1272d"/><path d="m710.37 591.08c0 10.11-2.39 17.97-7.17 23.56s-11.42 8.39-19.91 8.39c-8.46 0-15.1-2.77-19.93-8.31s-7.28-13.3-7.35-23.27v-12.89c0-10.35 2.4-18.44 7.2-24.25 4.8-5.82 11.46-8.72 19.99-8.72 8.39 0 15 2.86 19.83 8.57s7.28 13.73 7.35 24.05v12.87zm-15.28-12.64c0-6.8-.97-11.86-2.9-15.17s-4.94-4.97-9.01-4.97c-4.04 0-7.03 1.6-8.96 4.79s-2.93 8.05-3 14.57v13.41c0 6.59.98 11.45 2.95 14.58 1.97 3.12 5.01 4.68 9.11 4.68 3.97 0 6.92-1.53 8.85-4.58 1.93-3.06 2.92-7.79 2.95-14.21v-13.1z" fill="#c1272d"/></svg>